<?xml version="1.0" standalone="no"?>
<!DOCTYPE svg PUBLIC "-//W3C//DTD SVG 20010904//EN"
 "http://www.w3.org/TR/2001/REC-SVG-20010904/DTD/svg10.dtd">
<svg version="1.0" xmlns="http://www.w3.org/2000/svg"
 width="1000.000000pt" height="607.000000pt" viewBox="0 0 1000.000000 607.000000"
 preserveAspectRatio="xMidYMid meet">
<metadata>
Created by potrace 1.16, written by Peter Selinger 2001-2019
</metadata>
<g transform="translate(0.000000,607.000000) scale(0.100000,-0.100000)"
fill="#000000" stroke="none">
<path d="M0 3035 l0 -3035 5000 0 5000 0 0 3035 0 3035 -5000 0 -5000 0 0
-3035z m9860 0 l0 -2885 -4860 0 -4860 0 0 2885 0 2885 4860 0 4860 0 0 -2885z"/>
<path d="M420 3035 l0 -2605 4580 0 4580 0 0 2605 0 2605 -4580 0 -4580 0 0
-2605z m2250 674 l955 -1500 3 1500 2 1501 395 0 395 0 0 -2175 0 -2175 -402
0 -403 0 -985 1540 -985 1540 -3 -1540 -2 -1540 -400 0 -400 0 0 2175 0 2175
438 0 437 -1 955 -1500z m3792 594 l3 -908 948 -3 947 -2 0 910 0 910 400 0
400 0 0 -2175 0 -2175 -400 0 -400 0 0 920 0 920 -950 0 -950 0 0 -920 0 -920
-395 0 -395 0 0 2175 0 2175 395 0 395 0 2 -907z"/>
</g>
</svg>
